<svg xmlns="http://www.w3.org/2000/svg" width="512" height="512" viewBox="0 0 512 512">
  <defs>
    <radialGradient id="bgGrad" cx="50%" cy="40%" r="70%">
      <stop offset="0%" stop-color="#1e1b4b"/>
      <stop offset="100%" stop-color="#0a0a15"/>
    </radialGradient>
    <linearGradient id="diamondGrad" x1="0%" y1="100%" x2="100%" y2="0%">
      <stop offset="0%" stop-color="#3730a3"/>
      <stop offset="25%" stop-color="#4f46e5"/>
      <stop offset="60%" stop-color="#7c3aed"/>
      <stop offset="100%" stop-color="#a78bfa"/>
    </linearGradient>
    <linearGradient id="hl" x1="0%" y1="0%" x2="100%" y2="100%">
      <stop offset="0%" stop-color="rgba(255,255,255,0.3)"/>
      <stop offset="100%" stop-color="rgba(255,255,255,0)"/>
    </linearGradient>
    <linearGradient id="sh" x1="100%" y1="100%" x2="20%" y2="20%">
      <stop offset="0%" stop-color="rgba(0,0,0,0.35)"/>
      <stop offset="100%" stop-color="rgba(0,0,0,0)"/>
    </linearGradient>
    <linearGradient id="glass" x1="0%" y1="0%" x2="100%" y2="100%">
      <stop offset="0%" stop-color="rgba(255,255,255,0.25)"/>
      <stop offset="25%" stop-color="rgba(255,255,255,0)"/>
      <stop offset="100%" stop-color="rgba(255,255,255,0)"/>
    </linearGradient>
    <radialGradient id="aura" cx="50%" cy="50%" r="50%">
      <stop offset="55%" stop-color="rgba(129,140,248,0.12)"/>
      <stop offset="100%" stop-color="rgba(99,102,241,0)"/>
    </radialGradient>
  </defs>

  <!-- Aura glow -->
  <circle cx="256" cy="256" r="180" fill="url(#aura)"/>

  <!-- Diamond crystal -->
  <g transform="rotate(45 256 256)">
    <rect x="100" y="100" width="312" height="312" rx="28" ry="28" fill="url(#diamondGrad)"/>
    <!-- Top-left highlight -->
    <path d="M100 100 L230 100 L230 230 Z" fill="url(#hl)"/>
    <!-- Bottom-right shadow -->
    <path d="M256 256 L412 256 L412 412 L256 412 Z" fill="url(#sh)"/>
    <!-- Glass stripe -->
    <ellipse cx="240" cy="240" rx="160" ry="36" fill="url(#glass)"/>
    <!-- Specular highlight dot -->
    <ellipse cx="165" cy="165" rx="28" ry="12" fill="rgba(255,255,255,0.25)"/>
  </g>

  <!-- Checkmark in visual space — the CORRECT one -->
  <polyline points="185,270 210,320 330,215"
            fill="none" stroke="white" stroke-width="24"
            stroke-linecap="round" stroke-linejoin="round" opacity="0.92"/>
</svg>
